<?xml version="1.0" encoding="UTF-8" standalone="no"?>
<svg version="1.0" width="1024.000000pt" height="1024.000000pt"
    viewBox="0 0 1024.000000 1024.000000" preserveAspectRatio="xMidYMid meet" id="svg10"
    tuucho:docname="tuucho-logo.svg" tezov:version="1.4.2 (ebf0e940, 2025-05-08)"
    xmlns:tezov="https://doc.tuucho.com" xmlns:tuucho="https://github.com/by-tezov/tuucho"
    xmlns="http://www.w3.org/2000/svg">
    <defs id="defs10" />
    <tuucho:namedview id="namedview10" pagecolor="#ffffff" bordercolor="#000000"
        borderopacity="0.25" tezov:showpageshadow="2" tezov:pageopacity="0.0"
        tezov:pagecheckerboard="0" tezov:deskcolor="#d1d1d1" tezov:document-units="pt"
        tezov:zoom="0.43089319" tezov:cx="927.14391" tezov:cy="612.68083" tezov:window-width="1920"
        tezov:window-height="1027" tezov:window-x="0" tezov:window-y="25" tezov:window-maximized="1"
        tezov:current-layer="g10" />
    <g transform="matrix(0.13685274,0,0,-0.14252293,-190.56267,1241.1232)" fill="#ffffff"
        stroke="none" id="g10">
        <path
            d="m 2793,8537.4423 c -294,-59.4083 -531,-271.2606 -631,-562.6977 -66,-191.6759 -65,-167.0158 -71,-1146.6926 -7,-877.6739 -7,-892.2458 -29,-963.9842 -64,-216.3359 -207,-374.3845 -396,-441.6391 -64,-23.5392 -92,-39.232 -112,-65.0129 -25,-34.7483 -25,-36.9901 -22,-195.0387 4,-192.7968 2,-190.5549 131,-238.7542 48,-17.9346 113,-49.3201 143,-70.6174 76,-50.441 175,-170.3786 213,-257.8097 68,-153.5649 64,-96.3984 71,-1157.9018 l 6,-963.9841 26,-108.7284 c 68,-279.1071 220,-493.2013 433,-608.6552 140,-76.2219 222,-97.5193 412,-103.1238 l 162,-5.6046 25,28.0229 c 23,25.7809 26,38.1109 26,107.6074 0,65.0129 -4,82.9475 -23,107.6075 -20,26.9019 -32,30.2647 -117,39.232 -112,11.209 -190,40.3528 -262,102.0029 -89,75.1012 -150,177.1041 -185,309.3716 -15,58.2874 -18,171.4996 -23,1068.229 -6,997.6114 -6,1003.2159 -29,1092.889 -68,270.1397 -180,436.0346 -408,605.2923 -40,29.1436 -73,58.2874 -73,63.8919 0,4.4836 30,32.5065 67,62.7711 131,104.2448 213,183.8295 259,252.2051 61,89.6729 127,246.6006 156,366.5381 21,94.1567 22,109.8494 27,1048.0525 l 6,952.775 23,72.8593 c 74,230.9078 233,358.6917 448,358.6917 113,0 127,13.4509 132,126.6631 4,78.4637 2,87.431 -21,113.212 -25,28.0228 -29,29.1438 -159,28.0228 -73,0 -165,-7.8464 -205,-15.6928 z"
            id="path1" style="stroke-width:1.05873" />
        <path
            d="m 7086,8576.6153 c -23,-26.0071 -26,-38.4452 -26,-109.682 0,-70.1061 3,-83.675 25,-107.4206 21,-24.8763 33,-28.2685 97,-28.2685 183,0 336,-98.3747 416,-269.1168 61,-128.9047 60,-114.205 67,-1127.3506 7,-1031.2374 7,-1030.1067 78,-1214.4178 70,-184.311 149,-286.0779 325,-424.0285 61,-48.6219 112,-89.3287 112,-91.5902 0,-3.3922 -26,-24.8763 -57,-49.7527 -233,-179.788 -362,-379.9295 -430,-668.2689 -15,-65.5831 -17,-177.5267 -23,-1091.1668 -5,-1008.6226 -6,-1018.7993 -27,-1091.1668 -51,-169.6114 -160,-303.0391 -293,-356.184 -25,-10.1767 -90,-22.6149 -144,-27.1378 -91,-7.9152 -102,-11.3075 -123,-39.576 -19,-26.0071 -23,-42.9682 -23,-109.6821 0,-70.106 3,-82.5442 26,-108.5513 l 25,-28.2685 157,5.6537 c 116,3.3922 178,11.3074 237,29.3993 89,27.1378 221,93.8516 291,149.258 116,89.3287 228,255.5479 284,418.3749 65,191.0955 63,148.1273 69,1208.764 l 6,966.7851 31,96.1131 c 70,221.6256 205,368.6222 400,436.4667 117,39.576 118,41.8375 122,236.3253 l 3,161.6962 -28,33.9223 c -19,22.6148 -56,44.099 -113,65.5831 -168,64.4523 -296,194.4877 -365,372.0143 -53,134.5584 -55,167.35 -55,1014.2763 0,438.7282 -5,831.096 -10,891.0253 -40,429.6823 -260,732.7214 -613,843.5342 -75,23.7456 -122,30.53 -254,35.053 l -161,6.7844 z"
            id="path2" style="stroke-width:1.06337" />
        <path
            d="m 5817,7766 c -80,-29 -149,-95 -176,-169 -17,-45 -15,-689 3,-731 19,-46 72,-104 120,-129 40,-21 52,-22 429,-25 456,-3 468,-2 547,77 76,76 80,100 80,451 0,334 -5,367 -66,438 -20,24 -59,55 -88,70 l -51,27 -380,2 c -302,2 -388,0 -418,-11 z m 799,-199 24,-28 v -299 c 0,-297 0,-299 -23,-325 -14,-17 -39,-30 -67,-36 -55,-10 -575,-10 -649,0 -94,13 -91,3 -91,361 v 308 l 31,26 31,27 360,-3 360,-3 z"
            id="path3" />
        <path
            d="m 3485,7476 c -65,-21 -98,-42 -141,-88 -68,-73 -76,-108 -72,-309 3,-165 4,-178 29,-224 29,-58 102,-118 163,-135 29,-8 279,-10 876,-8 l 835,3 54,30 c 64,36 105,83 127,147 12,38 15,82 12,216 -3,158 -5,170 -30,218 -31,59 -84,108 -147,138 -45,21 -56,21 -856,23 -635,2 -819,-1 -850,-11 z m 1671,-208 34,-38 v -136 c 0,-107 -3,-142 -16,-163 -35,-59 4,-56 -794,-59 -404,-2 -764,0 -800,3 -55,6 -69,12 -97,40 l -33,33 v 139 c 0,152 5,168 64,204 30,18 57,19 819,17 l 789,-3 z"
            id="path4" />
        <path
            d="m 2875,6641 c -81,-34 -76,-161 7,-176 18,-3 1038,-4 2266,-3 l 2234,3 24,28 c 26,30 31,75 13,109 -27,50 86,48 -2301,47 -1223,0 -2232,-4 -2243,-8 z"
            id="path5" />
        <path
            d="m 3322,5930 c -18,-11 -37,-32 -42,-46 -6,-14 -10,-165 -10,-354 v -330 l 29,-32 29,-33 1769,-3 c 1215,-2 1779,0 1804,8 66,19 67,20 74,386 6,323 6,330 -14,362 -42,66 87,62 -1848,62 -1739,0 -1758,0 -1791,-20 z M 6800,5535 V 5300 H 5120 3440 v 235 235 h 1680 1680 z"
            id="path6" />
        <path
            d="m 2873,5069 c -64,-19 -82,-101 -34,-150 l 29,-29 h 2239 c 2111,0 2240,1 2273,18 67,33 63,129 -6,158 -28,12 -389,14 -2251,13 -1344,0 -2231,-4 -2250,-10 z"
            id="path7" />
        <path
            d="m 3875,4410 c -185,-29 -320,-161 -354,-344 -14,-75 -14,-286 -1,-356 32,-166 158,-295 323,-330 36,-7 435,-10 1307,-8 1198,3 1257,4 1305,22 125,46 218,142 255,264 17,53 20,93 20,226 0,104 -5,179 -14,212 -43,163 -180,286 -347,313 -76,13 -2415,13 -2494,1 z m 2561,-215 c 30,-19 60,-49 79,-79 l 30,-49 v -176 c 0,-169 -1,-178 -25,-221 -33,-58 -96,-105 -160,-119 -71,-15 -2409,-15 -2480,0 -66,14 -127,62 -159,124 -25,47 -26,57 -26,215 0,185 7,210 78,278 67,65 -11,61 1363,59 l 1251,-2 z"
            id="path8" />
        <path
            d="m 3975,3925 c -17,-16 -25,-35 -25,-60 0,-25 8,-44 25,-60 l 24,-25 h 798 c 844,1 816,-1 841,47 18,33 14,59 -14,92 l -26,31 h -799 -800 z"
            id="path9" tezov:label="path9" />
        <path
            d="m 2863,3330 c -55,-22 -68,-109 -23,-154 l 21,-21 2217,-3 c 1219,-2 2237,0 2261,3 85,13 120,91 67,152 l -24,28 -2249,2 c -1242,1 -2258,-3 -2270,-7 z"
            id="path10" tezov:label="path10" />
    </g>
</svg>
